<svg width="230" height="229" viewBox="0 0 230 229" fill="none" xmlns="http://www.w3.org/2000/svg">
<path d="M58 57.05V114.05H115V57.05H58Z" fill="#FFD15C"/>
<path d="M115 114.05V171.05H172V114.05H115Z" fill="#FFD770"/>
<path d="M58 114.05V171.05H115V114.05H58Z" fill="#F5AF00"/>
<path d="M58.0001 57L0.820068 114.05H58.0001V57Z" fill="#F5AF00"/>
<path d="M57 171.05H16.62C0 171.05 0 184.11 0 184.11V228.05H39.78C39.78 228.05 57 229.83 57 213.8V171.05Z" fill="#E2193E"/>
<path d="M172.18 171.05H115V228.05L172.18 171.05Z" fill="#F5AF00"/>
<path d="M229 57.05V0.0500031H172V57.05H229Z" fill="#FFB800"/>
<path d="M172 56.7V113.76C192.6 92.94 229.18 56.7 229.18 56.7H172Z" fill="#FFCB47"/>
<path d="M114.82 57.05H172V0L114.82 57.05Z" fill="#FFCB47"/>
<path d="M115 57.05V114.05H172V57.05H115Z" fill="#FFE299"/>
</svg>